<svg width="20" height="24" viewBox="0 0 20 24" fill="none" xmlns="http://www.w3.org/2000/svg">
<path d="M0 1C0 0.447717 0.447715 0 1 0H19C19.5523 0 20 0.447715 20 1V15.8046C20 16.3569 19.5523 16.8046 19 16.8046H13.3711C12.9532 16.8046 12.5794 17.0644 12.4338 17.4561L10.9373 21.4799C10.6143 22.3484 9.38575 22.3484 9.06272 21.4799L7.56621 17.4561C7.42056 17.0644 7.04677 16.8046 6.62894 16.8046H1C0.447715 16.8046 0 16.3569 0 15.8046V1Z" fill="#2F2E41"/>
<path d="M9.5 13C9.5 13.2761 9.72386 13.5 10 13.5C10.2761 13.5 10.5 13.2761 10.5 13H9.5ZM10.3536 3.64645C10.1583 3.45118 9.84171 3.45118 9.64645 3.64645L6.46447 6.82843C6.2692 7.02369 6.2692 7.34027 6.46447 7.53553C6.65973 7.7308 6.97631 7.7308 7.17157 7.53553L10 4.70711L12.8284 7.53553C13.0237 7.7308 13.3403 7.7308 13.5355 7.53553C13.7308 7.34027 13.7308 7.02369 13.5355 6.82843L10.3536 3.64645ZM10.5 13L10.5 4H9.5L9.5 13H10.5Z" fill="#F9FBFF"/>
</svg>
