<svg width="24" height="27" viewBox="0 0 24 27" fill="none" xmlns="http://www.w3.org/2000/svg">
<path d="M3 1C1.89543 1 1 1.89543 1 3V17.8046C1 18.9092 1.89543 19.8046 3 19.8046H8.62894L10.1254 23.8284C10.7715 25.5656 13.2285 25.5655 13.8746 23.8284L15.3711 19.8046H21C22.1046 19.8046 23 18.9092 23 17.8046V3C23 1.89543 22.1046 1 21 1H3Z" stroke="#D9D9D9" stroke-width="2"/>
<path d="M11.5 15C11.5 15.2761 11.7239 15.5 12 15.5C12.2761 15.5 12.5 15.2761 12.5 15H11.5ZM12.3536 5.64645C12.1583 5.45118 11.8417 5.45118 11.6464 5.64645L8.46447 8.82843C8.2692 9.02369 8.2692 9.34027 8.46447 9.53553C8.65973 9.7308 8.97631 9.7308 9.17157 9.53553L12 6.70711L14.8284 9.53553C15.0237 9.7308 15.3403 9.7308 15.5355 9.53553C15.7308 9.34027 15.7308 9.02369 15.5355 8.82843L12.3536 5.64645ZM12.5 15L12.5 6H11.5L11.5 15H12.5Z" fill="#D9D9D9"/>
</svg>
