<svg width="24" height="24" viewBox="0 0 24 24" fill="none" xmlns="http://www.w3.org/2000/svg">
<rect x="1" y="1" width="22" height="22" rx="3" fill="#2F2E41" stroke="#F9FBFF" stroke-width="2"/>
<path d="M5.64645 11.6464C5.45118 11.8417 5.45118 12.1583 5.64645 12.3536L8.82843 15.5355C9.02369 15.7308 9.34027 15.7308 9.53553 15.5355C9.7308 15.3403 9.7308 15.0237 9.53553 14.8284L6.70711 12L9.53553 9.17157C9.7308 8.97631 9.7308 8.65973 9.53553 8.46447C9.34027 8.2692 9.02369 8.2692 8.82843 8.46447L5.64645 11.6464ZM18.3536 12.3536C18.5488 12.1583 18.5488 11.8417 18.3536 11.6464L15.1716 8.46447C14.9763 8.2692 14.6597 8.2692 14.4645 8.46447C14.2692 8.65973 14.2692 8.97631 14.4645 9.17157L17.2929 12L14.4645 14.8284C14.2692 15.0237 14.2692 15.3403 14.4645 15.5355C14.6597 15.7308 14.9763 15.7308 15.1716 15.5355L18.3536 12.3536ZM6 12.5L18 12.5V11.5L6 11.5V12.5Z" fill="#F9FBFF"/>
</svg>
