<svg width="27" height="28" viewBox="0 0 27 28" fill="none" xmlns="http://www.w3.org/2000/svg">
<path d="M7.57671 9.72088V16.5859M23.5952 15.4418V7.66136C23.5952 6.37977 23.5952 5.73896 23.3457 5.24946C23.1264 4.81888 22.7763 4.4688 22.3457 4.24942C21.8563 4 21.2154 4 19.9338 4H6.66136C5.37977 4 4.73897 4 4.24946 4.24942C3.81888 4.4688 3.4688 4.81888 3.24942 5.24946C3 5.73896 3 6.37977 3 7.66136V18.6455C3 19.927 3 20.5679 3.24942 21.0574C3.4688 21.4879 3.81888 21.8381 4.24946 22.0574C4.73897 22.3068 5.37977 22.3068 6.66136 22.3068H13.2976M13.2976 14.2976H14.2102C14.7193 14.2976 14.9738 14.2976 15.2158 14.3506C15.4304 14.3976 15.6371 14.4753 15.8297 14.5812C16.0466 14.7007 16.2381 14.8683 16.6213 15.2035L23.4406 21.1704C24.1435 21.7854 24.1795 22.8667 23.5191 23.5271C22.9181 24.1281 21.954 24.1603 21.3143 23.6005L14.5479 17.68C14.0879 17.2774 13.8578 17.0761 13.6926 16.8329C13.5462 16.6172 13.4377 16.3782 13.372 16.1261C13.2976 15.8417 13.2976 15.5359 13.2976 14.9245V14.2976Z" stroke="#D9D9D9" stroke-width="2" stroke-linecap="round" stroke-linejoin="round"/>
</svg>
