<svg width="22" height="22" viewBox="0 0 22 22" fill="none" xmlns="http://www.w3.org/2000/svg">
<path d="M16.5556 7.25H5.44444M16.5556 12.25H11M0.999999 21L4.69367 18.9222C4.97367 18.7647 5.11367 18.686 5.26044 18.6305C5.39067 18.5813 5.52478 18.5456 5.66089 18.5241C5.81422 18.5 5.97078 18.5 6.28378 18.5H17.4444C18.689 18.5 19.3113 18.5 19.7866 18.2275C20.2048 17.9879 20.5447 17.6054 20.7578 17.135C21 16.6003 21 15.9001 21 14.5V5C21 3.59986 21 2.8998 20.7578 2.36503C20.5447 1.89461 20.2048 1.51216 19.7866 1.27249C19.3113 1 18.689 1 17.4444 1H4.55556C3.311 1 2.68866 1 2.21333 1.27249C1.79522 1.51216 1.45522 1.89461 1.24222 2.36503C1 2.8998 0.999999 3.59987 0.999999 5V21Z" stroke="#D9D9D9" stroke-width="2" stroke-linecap="round" stroke-linejoin="round"/>
</svg>
