<svg width="22" height="22" viewBox="0 0 22 22" fill="none" xmlns="http://www.w3.org/2000/svg">
<path opacity="0.4" d="M11.1226 11.78C11.0526 11.77 10.9626 11.77 10.8826 11.78C9.12265 11.72 7.72266 10.28 7.72266 8.50996C7.72266 6.69997 9.18265 5.22998 11.0026 5.22998C12.8126 5.22998 14.2826 6.69997 14.2826 8.50996C14.2726 10.28 12.8826 11.72 11.1226 11.78Z" stroke="#D9D9D9" stroke-width="2" stroke-linecap="round" stroke-linejoin="round"/>
<path opacity="0.34" d="M17.7417 18.38C15.9617 20.01 13.6017 21 11.0017 21C8.4017 21 6.04171 20.01 4.26172 18.38C4.36172 17.44 4.96171 16.52 6.03171 15.8001C8.77169 13.9801 13.2517 13.9801 15.9717 15.8001C17.0417 16.52 17.6417 17.44 17.7417 18.38Z" stroke="#D9D9D9" stroke-width="2" stroke-linecap="round" stroke-linejoin="round"/>
<path d="M10.9999 20.9999C16.5227 20.9999 20.9999 16.5227 20.9999 10.9999C20.9999 5.47713 16.5227 1 10.9999 1C5.47713 1 1 5.47713 1 10.9999C1 16.5227 5.47713 20.9999 10.9999 20.9999Z" stroke="#D9D9D9" stroke-width="2" stroke-linecap="round" stroke-linejoin="round"/>
</svg>
