<svg width="61" height="28" viewBox="0 0 61 28" fill="none" xmlns="http://www.w3.org/2000/svg">
<path d="M55.7831 5.04348C55.7831 4.46718 56.2502 4 56.8265 4C57.4028 4 57.87 4.46718 57.87 5.04348V5.65477L59.1961 4.32859C59.6036 3.92108 60.2644 3.92108 60.6718 4.32859C61.0794 4.73609 61.0794 5.39678 60.6718 5.80429L59.3457 7.13043H59.9569C60.5333 7.13043 61.0004 7.59762 61.0004 8.17391C61.0004 8.75021 60.5333 9.21739 59.9569 9.21739H57.2587L49.211 17.2652C48.8035 17.6727 48.1428 17.6727 47.7353 17.2652C47.3278 16.8577 47.3278 16.197 47.7353 15.7895L55.7831 7.74173V5.04348Z" fill="#D9D9D9"/>
<path d="M54.105 7.9538C54.5658 7.49302 54.4966 6.72424 53.9232 6.41467C52.303 5.53995 50.4486 5.04346 48.4782 5.04346C42.139 5.04346 37 10.1825 37 16.5217C37 22.861 42.139 28 48.4782 28C54.8174 28 59.9564 22.861 59.9564 16.5217C59.9564 14.5552 59.4619 12.7042 58.5903 11.0863C58.2812 10.5122 57.5119 10.4427 57.0508 10.9037L57.0196 10.9349C56.6751 11.2794 56.6206 11.8139 56.8426 12.2476C57.4991 13.5296 57.8694 14.9825 57.8694 16.5217C57.8694 21.7084 53.6649 25.913 48.4782 25.913C43.2915 25.913 39.0869 21.7084 39.0869 16.5217C39.0869 11.335 43.2915 7.13041 48.4782 7.13041C50.0206 7.13041 51.4763 7.50229 52.7603 8.16128C53.1941 8.38393 53.7291 8.32967 54.074 7.98486L54.105 7.9538Z" fill="#D9D9D9"/>
<path d="M50.9739 11.0868C51.467 10.5937 51.3429 9.76331 50.6778 9.55371C49.9842 9.33515 49.2459 9.21729 48.4801 9.21729C44.446 9.21729 41.1758 12.4876 41.1758 16.5216C41.1758 20.5557 44.446 23.826 48.4801 23.826C52.5141 23.826 55.7844 20.5557 55.7844 16.5216C55.7844 15.7601 55.6678 15.0257 55.4516 14.3354C55.2429 13.6694 54.4118 13.5446 53.9183 14.0381L53.822 14.1344C53.5286 14.4278 53.4465 14.865 53.5458 15.2678C53.6448 15.6694 53.6974 16.0894 53.6974 16.5216C53.6974 19.4031 51.3615 21.739 48.4801 21.739C45.5986 21.739 43.2627 19.4031 43.2627 16.5216C43.2627 13.6402 45.5986 11.3042 48.4801 11.3042C48.9154 11.3042 49.3383 11.3576 49.7427 11.4581C50.146 11.5583 50.5843 11.4764 50.8782 11.1825L50.9739 11.0868Z" fill="#D9D9D9"/>
<path d="M47.516 13.5491C47.9432 13.4067 48.1581 13.9005 47.8397 14.219L46.9992 15.0596C46.1851 15.8736 46.1851 17.1934 46.9992 18.0074C47.8132 18.8214 49.133 18.8214 49.947 18.0074L50.7769 17.1774C51.096 16.8584 51.5899 17.0748 51.4446 17.5022C51.0252 18.7347 49.8487 19.6521 48.4781 19.6521C46.7491 19.6521 45.3477 18.2506 45.3477 16.5216C45.3477 15.1438 46.2745 13.963 47.516 13.5491Z" fill="#D9D9D9"/>
<path d="M7.73999 2.00008C7.74 1.72394 7.51615 1.50007 7.24 1.50007C6.96386 1.50006 6.74 1.72391 6.73999 2.00005L7.73999 2.00008ZM7.23955 15.0537L7.73955 15.0537L7.23955 15.0537ZM8.23965 16.0537L8.2397 16.5537L8.23965 16.0537ZM22.3553 16.4058C22.5505 16.2105 22.5505 15.8939 22.3552 15.6987L19.1729 12.5171C18.9776 12.3218 18.661 12.3218 18.4658 12.5171C18.2706 12.7124 18.2706 13.029 18.4659 13.2242L21.2946 16.0524L18.4665 18.8811C18.2712 19.0764 18.2713 19.393 18.4665 19.5882C18.6618 19.7834 18.9784 19.7834 19.1736 19.5881L22.3553 16.4058ZM6.73999 2.00005L6.73955 15.0537L7.73955 15.0537L7.73999 2.00008L6.73999 2.00005ZM8.2397 16.5537L22.0018 16.5523L22.0017 15.5523L8.2396 15.5537L8.2397 16.5537ZM6.73955 15.0537C6.73952 15.8822 7.41119 16.5538 8.2397 16.5537L8.2396 15.5537C7.96343 15.5538 7.73954 15.3299 7.73955 15.0537L6.73955 15.0537Z" fill="#D9D9D9"/>
</svg>
