<svg width="669" height="669" viewBox="0 0 669 669" fill="none" xmlns="http://www.w3.org/2000/svg">
<g opacity="0.41">
<path d="M641.178 399.364C641.751 389.501 641.494 379.595 640.383 369.784C635.161 323.69 611.513 280.225 576.708 249.557C564.29 238.616 550.162 228.814 542.08 214.372C528.471 190.05 529.503 162.097 512.612 138.082C495.702 114.039 471.06 95.2897 443.272 85.6601C360.415 56.9493 244.411 103.696 254.856 203.526C254.893 203.884 254.935 204.405 254.978 205.063C256.366 225.8 240.091 243.235 219.377 243.726C142.931 245.54 77.1265 304.481 63.0454 379.14C53.9899 427.154 68.8176 479.781 103.94 513.749C130.158 539.104 165.334 553.033 200.528 562.604C271.092 581.795 345.349 585.817 418.106 578.479C486.213 571.61 558.053 552.031 602.1 499.633C625.598 471.681 639.058 435.837 641.178 399.364Z" fill="#E1E2FE"/>
<path d="M641.178 399.364C641.751 389.501 641.494 379.595 640.383 369.784C635.161 323.69 611.513 280.225 576.708 249.557C564.29 238.616 550.162 228.814 542.08 214.372C528.471 190.05 529.503 162.097 512.612 138.082C495.702 114.039 471.06 95.2897 443.272 85.6601C360.415 56.9493 244.411 103.696 254.856 203.526C254.893 203.884 254.935 204.405 254.978 205.063C256.366 225.8 240.091 243.235 219.377 243.726C142.931 245.54 77.1265 304.481 63.0454 379.14C53.9899 427.154 68.8176 479.781 103.94 513.749C130.158 539.104 165.334 553.033 200.528 562.604C271.092 581.795 345.349 585.817 418.106 578.479C486.213 571.61 558.053 552.031 602.1 499.633C625.598 471.681 639.058 435.837 641.178 399.364Z" fill="#84B8FF"/>
</g>
<g opacity="0.31">
<path d="M308.586 63.5609C310.153 53.8637 303.562 44.7324 293.865 43.1657C284.168 41.5989 275.036 48.19 273.47 57.8872C271.903 67.5844 278.494 76.7157 288.191 78.2824C297.888 79.8492 307.02 73.2582 308.586 63.5609Z" fill="#E1E2FE"/>
<path d="M308.586 63.5609C310.153 53.8637 303.562 44.7324 293.865 43.1657C284.168 41.5989 275.036 48.19 273.47 57.8872C271.903 67.5844 278.494 76.7157 288.191 78.2824C297.888 79.8492 307.02 73.2582 308.586 63.5609Z" fill="#84B8FF"/>
</g>
<g opacity="0.31">
<path d="M531.369 59.0579C536.437 59.0579 540.546 54.9491 540.546 49.8806C540.546 44.8121 536.437 40.7032 531.369 40.7032C526.3 40.7032 522.191 44.8121 522.191 49.8806C522.191 54.9491 526.3 59.0579 531.369 59.0579Z" fill="#476FD4"/>
</g>
<g opacity="0.31">
<path d="M219.354 103.522C220.998 96.9323 216.988 90.2577 210.398 88.614C203.808 86.9704 197.133 90.9803 195.49 97.5704C193.846 104.16 197.856 110.835 204.446 112.479C211.036 114.122 217.711 110.112 219.354 103.522Z" fill="#E1E2FE"/>
</g>
<g opacity="0.31">
<path d="M65.6058 574.54C81.07 574.54 93.6061 562.004 93.6061 546.54C93.6061 531.075 81.07 518.539 65.6058 518.539C50.1416 518.539 37.6055 531.075 37.6055 546.54C37.6055 562.004 50.1416 574.54 65.6058 574.54Z" fill="#E1E2FE"/>
<path d="M65.6058 574.54C81.07 574.54 93.6061 562.004 93.6061 546.54C93.6061 531.075 81.07 518.539 65.6058 518.539C50.1416 518.539 37.6055 531.075 37.6055 546.54C37.6055 562.004 50.1416 574.54 65.6058 574.54Z" fill="#84B8FF"/>
</g>
<g opacity="0.47">
<path d="M633.561 109.65C641.544 94.1028 635.409 75.0283 619.861 67.0458C604.314 59.0646 574.436 59.652 566.454 75.1996C558.473 90.7471 582.401 104.091 592.158 118.59C605.767 138.812 625.579 125.198 633.561 109.65Z" fill="#ECF1F7"/>
<path d="M633.561 109.65C641.544 94.1028 635.409 75.0283 619.861 67.0458C604.314 59.0646 574.436 59.652 566.454 75.1996C558.473 90.7471 582.401 104.091 592.158 118.59C605.767 138.812 625.579 125.198 633.561 109.65Z" fill="#84B8FF"/>
</g>
<g opacity="0.47">
<path d="M565.575 587.518C576.825 594.781 591.831 591.55 599.094 580.3C606.356 569.05 608.171 546.228 596.921 538.965C585.671 531.702 573.688 548.936 561.895 555.277C545.446 564.121 554.325 580.256 565.575 587.518Z" fill="#E1E2FE"/>
<path d="M565.575 587.518C576.825 594.781 591.831 591.55 599.094 580.3C606.356 569.05 608.171 546.228 596.921 538.965C585.671 531.702 573.688 548.936 561.895 555.277C545.446 564.121 554.325 580.256 565.575 587.518Z" fill="#84B8FF"/>
</g>
<path opacity="0.47" d="M106.419 38.3123C94.0447 26.8215 74.6999 27.5374 63.2091 39.9112C51.7184 52.285 44.4504 80.2265 56.8242 91.7172C69.198 103.208 87.8671 84.4412 103.904 79.1587C126.273 71.7904 118.792 49.803 106.419 38.3123Z" fill="#84B8FF"/>
<path opacity="0.47" d="M38.2138 171.884C27.182 195.831 24.1702 223.439 29.4633 249.249C35.685 279.593 54.5762 302.904 48.0213 335.275C44.0288 354.991 43.0293 373.257 41.0049 392.766C36.8477 432.826 62.8571 468.123 95.1243 487.183C121.332 502.664 152.056 508.472 182.187 508.06C209.305 507.688 236.376 502.68 262.654 495.947C287.978 489.458 312.738 480.908 339.283 483.605C361.36 485.849 381.242 495.393 401.802 502.51C450.886 519.501 510.346 521.898 555.23 496.031C584.036 479.432 604.198 452.473 613.14 423.489C620.287 400.326 621.194 378.665 615.838 355.017C610.337 330.738 601.053 306.262 603.936 280.963C605.946 263.333 614.009 246.318 612.532 228.636C611.549 216.887 606.377 205.865 600.051 195.917C576.954 159.591 538.281 135.27 497.373 121.87C458.874 109.26 419.172 100.127 379.091 103.161C296.22 109.434 279.327 96.2718 194.637 78.158C139.962 66.4638 78.8034 108.149 46.8091 156.44C43.5444 161.363 40.6797 166.532 38.2138 171.884Z" fill="#9CCAFF"/>
<path opacity="0.81" d="M95.2277 209.204C93.5284 228.327 99.9776 248.033 94.5855 266.971C88.1309 289.644 69.4484 306.627 61.8326 328.887C50.5786 361.78 51.1192 398.638 64.7855 430.691C71.3725 446.139 80.9941 460.495 94.1332 470.423C114.389 485.729 140.93 489.086 165.89 487.144C203.038 484.256 242.236 468.173 279.587 472.559C300.197 474.979 306.491 497.286 317.136 512.002C329.176 528.645 345.572 541.716 363.697 550.418C397.083 566.445 437.151 567.962 471.273 553.43C507.702 537.915 539.454 500.027 537.367 457.177C536.401 437.355 528.467 417.666 532.14 398.187C536.75 373.744 555.168 351.469 568.514 331.552C583.254 309.557 592.177 283.327 593.927 256.567C593.947 256.263 593.966 255.959 593.985 255.657C596.721 209.492 567.603 167.388 523.671 152.94C523.671 152.94 430.2 122.2 430.196 122.198C335.352 91.0041 240.588 92.0357 153.381 137.814C134.51 147.721 103.783 177.235 97.4541 197.588C96.2606 201.428 95.5742 205.304 95.2277 209.204Z" fill="#9CCAFF"/>
<path opacity="0.58" d="M625.716 516.574C629.042 516.574 631.737 513.878 631.737 510.553C631.737 507.227 629.042 504.532 625.716 504.532C622.391 504.532 619.695 507.227 619.695 510.553C619.695 513.878 622.391 516.574 625.716 516.574Z" fill="#3E479B"/>
<path opacity="0.58" d="M347.578 47.313C350.903 47.313 353.599 44.6173 353.599 41.292C353.599 37.9667 350.903 35.271 347.578 35.271C344.252 35.271 341.557 37.9667 341.557 41.292C341.557 44.6173 344.252 47.313 347.578 47.313Z" fill="#0071F2"/>
<path opacity="0.58" d="M130.062 572.099C133.387 572.099 136.083 569.404 136.083 566.078C136.083 562.753 133.387 560.057 130.062 560.057C126.737 560.057 124.041 562.753 124.041 566.078C124.041 569.404 126.737 572.099 130.062 572.099Z" fill="#3E479B"/>
<path opacity="0.58" d="M510.095 596.08C512.681 596.08 514.778 593.984 514.778 591.397C514.778 588.811 512.681 586.714 510.095 586.714C507.509 586.714 505.412 588.811 505.412 591.397C505.412 593.984 507.509 596.08 510.095 596.08Z" fill="#FFCB37"/>
<path opacity="0.58" d="M103.484 145.842C104.592 145.842 105.491 144.943 105.491 143.835C105.491 142.727 104.592 141.828 103.484 141.828C102.375 141.828 101.477 142.727 101.477 143.835C101.477 144.943 102.375 145.842 103.484 145.842Z" fill="#3E479B"/>
<path opacity="0.58" d="M531.001 83.9675C530.168 87.8731 526.325 90.3618 522.421 89.5282C518.515 88.6947 516.026 84.8519 516.86 80.9476C517.694 77.042 521.536 74.5533 525.441 75.3869C529.345 76.2205 531.835 80.0619 531.001 83.9675Z" fill="#FFCB37"/>
<path opacity="0.58" d="M144.599 50.7422C144.273 52.2742 142.766 53.2496 141.234 52.9232C139.702 52.5967 138.727 51.0901 139.053 49.5581C139.38 48.0261 140.886 47.0507 142.418 47.3772C143.95 47.7036 144.927 49.2102 144.599 50.7422Z" fill="#EF929C"/>
<path opacity="0.58" d="M596.519 38.8287C596.241 40.1306 594.961 40.9602 593.659 40.6818C592.357 40.4035 591.527 39.1231 591.806 37.8212C592.084 36.5193 593.364 35.6898 594.666 35.9681C595.968 36.2464 596.798 37.5268 596.519 38.8287Z" fill="#13366F"/>
<path opacity="0.58" d="M86.6718 613.667C86.3935 614.969 85.1131 615.798 83.8112 615.52C82.5093 615.242 81.6798 613.961 81.9581 612.659C82.2364 611.358 83.5168 610.528 84.8187 610.806C86.1206 611.085 86.9501 612.365 86.6718 613.667Z" fill="#3E479B"/>
<g opacity="0.66">
<path d="M260.123 253.89L249.476 253.077C248.661 245.059 246.115 237.5 242.185 230.816L250.289 223.861C254.394 220.338 254.866 214.155 251.344 210.05C247.821 205.945 241.638 205.473 237.533 208.996L229.428 215.949C223.417 211.049 216.333 207.386 208.532 205.363L209.345 194.715C209.757 189.322 205.718 184.616 200.326 184.204C194.932 183.792 190.226 187.83 189.814 193.223L189.001 203.871C180.982 204.686 173.424 207.232 166.739 211.162L159.784 203.058C156.261 198.953 150.078 198.48 145.973 202.003C141.868 205.526 141.396 211.709 144.919 215.814L151.874 223.918C146.974 229.93 143.311 237.013 141.288 244.815L130.64 244.002C125.246 243.59 120.541 247.629 120.129 253.021C119.716 258.415 123.755 263.12 129.148 263.533L139.796 264.346C140.611 272.365 143.157 279.923 147.087 286.608L138.982 293.563C134.877 297.086 134.405 303.268 137.928 307.373C141.451 311.478 147.634 311.951 151.739 308.428L159.843 301.473C165.855 306.373 172.938 310.036 180.74 312.059L179.926 322.707C179.514 328.1 183.552 332.806 188.946 333.218C194.339 333.63 199.045 329.592 199.457 324.199L200.269 313.551C208.288 312.736 215.846 310.19 222.531 306.26L229.486 314.365C233.009 318.469 239.192 318.942 243.297 315.419C247.402 311.896 247.874 305.713 244.351 301.608L237.398 293.504C242.297 287.493 245.961 280.409 247.984 272.607L258.632 273.42C264.025 273.832 268.731 269.794 269.143 264.401C269.556 259.007 265.517 254.302 260.123 253.89ZM191.599 298.497C169.627 296.819 153.173 277.647 154.851 255.674C156.529 233.702 175.701 217.248 197.674 218.926C219.646 220.604 236.1 239.776 234.422 261.749C232.744 283.722 213.572 300.175 191.599 298.497Z" fill="white"/>
<path d="M487.628 554.156C486.338 554.156 485.058 553.845 483.879 553.234C481.946 552.23 480.517 550.532 479.859 548.454L477.945 542.413C473.001 542.918 468.089 542.494 463.309 541.152L460.389 546.775C458.315 550.768 453.38 552.331 449.386 550.259C447.451 549.256 446.023 547.558 445.365 545.48C444.707 543.402 444.897 541.193 445.901 539.258L448.82 533.635C444.972 530.498 441.798 526.724 439.364 522.393L433.323 524.306C429.032 525.666 424.437 523.279 423.081 518.989C422.422 516.911 422.612 514.702 423.616 512.767C424.621 510.832 426.318 509.403 428.395 508.747L434.436 506.833C433.933 501.891 434.356 496.977 435.698 492.197L430.074 489.277C428.139 488.274 426.712 486.577 426.054 484.498C425.395 482.42 425.585 480.211 426.59 478.276C427.594 476.343 429.291 474.914 431.369 474.256C433.446 473.599 435.656 473.787 437.591 474.791L443.215 477.71C446.351 473.863 450.125 470.688 454.457 468.253L452.543 462.214C451.185 457.924 453.571 453.328 457.86 451.97C459.936 451.312 462.147 451.503 464.082 452.506C466.017 453.511 467.446 455.209 468.103 457.286L470.016 463.327C474.96 462.821 479.872 463.246 484.654 464.589L487.573 458.964C489.646 454.971 494.578 453.407 498.577 455.481C502.568 457.555 504.131 462.489 502.061 466.484L499.142 472.107C502.99 475.244 506.165 479.019 508.599 483.35L514.64 481.437C516.719 480.78 518.927 480.968 520.862 481.972C522.796 482.977 524.224 484.675 524.882 486.752C526.24 491.042 523.855 495.637 519.565 496.995L513.524 498.908C514.027 503.851 513.604 508.764 512.262 513.545L517.887 516.463C521.88 518.537 523.443 523.473 521.371 527.466C520.368 529.401 518.67 530.83 516.592 531.487C514.515 532.145 512.306 531.954 510.369 530.951L504.747 528.032C501.608 531.881 497.835 535.054 493.503 537.488L495.417 543.529C496.075 545.607 495.885 547.817 494.882 549.751C493.877 551.686 492.179 553.115 490.101 553.772C489.29 554.027 488.457 554.156 487.628 554.156ZM479.826 539.487L482.41 547.648C482.853 549.044 483.812 550.186 485.113 550.859C486.413 551.534 487.897 551.661 489.295 551.22C490.692 550.777 491.834 549.818 492.508 548.517C493.184 547.217 493.311 545.731 492.869 544.335L490.284 536.176L491.274 535.654C496.01 533.162 500.064 529.752 503.327 525.517L504.009 524.631L511.607 528.572C512.907 529.247 514.391 529.374 515.789 528.934C517.186 528.491 518.327 527.532 519 526.23C520.393 523.547 519.343 520.231 516.659 518.836L509.062 514.895L509.394 513.826C510.979 508.72 511.434 503.441 510.748 498.136L510.603 497.026L518.764 494.442C521.646 493.528 523.25 490.44 522.337 487.557C521.894 486.16 520.935 485.02 519.633 484.344C518.335 483.668 516.849 483.541 515.452 483.983L507.293 486.568L506.771 485.578C504.28 480.843 500.869 476.787 496.633 473.525L495.746 472.843L499.689 465.245C501.082 462.561 500.032 459.245 497.348 457.852C494.659 456.455 491.345 457.509 489.954 460.193L486.011 467.79L484.942 467.458C479.837 465.873 474.559 465.421 469.252 466.104L468.142 466.249L465.558 458.088C465.116 456.692 464.156 455.55 462.855 454.877C461.555 454.202 460.074 454.073 458.673 454.516C455.791 455.43 454.186 458.518 455.099 461.401L457.684 469.559L456.694 470.081C451.959 472.574 447.904 475.984 444.642 480.219L443.96 481.106L436.361 477.163C435.062 476.487 433.577 476.36 432.18 476.802C430.783 477.245 429.642 478.204 428.969 479.506C428.293 480.806 428.165 482.29 428.606 483.687C429.049 485.084 430.009 486.224 431.311 486.898L438.906 490.841L438.575 491.91C436.988 497.016 436.534 502.295 437.22 507.6L437.365 508.71L429.205 511.294C427.808 511.736 426.666 512.696 425.993 513.997C425.318 515.297 425.191 516.783 425.633 518.179C426.547 521.061 429.635 522.668 432.517 521.753L440.677 519.168L441.198 520.158C443.69 524.893 447.1 528.948 451.335 532.21L452.221 532.892L448.28 540.491C447.605 541.791 447.476 543.275 447.918 544.672C448.361 546.069 449.32 547.21 450.622 547.883C453.306 549.277 456.623 548.224 458.016 545.542L461.959 537.946L463.028 538.277C468.134 539.863 473.415 540.315 478.716 539.632L479.826 539.487ZM473.951 532.017C469.343 532.017 464.773 530.912 460.563 528.728C453.656 525.142 448.559 519.084 446.209 511.665C443.86 504.245 444.541 496.357 448.125 489.449C451.711 482.542 457.769 477.444 465.189 475.094C472.609 472.744 480.495 473.426 487.406 477.01C494.313 480.596 499.412 486.656 501.76 494.074C504.11 501.493 503.429 509.383 499.843 516.291C496.257 523.198 490.199 528.296 482.779 530.644C479.88 531.562 476.908 532.017 473.951 532.017ZM474.014 476.399C471.327 476.399 468.63 476.812 465.997 477.646C459.259 479.78 453.755 484.41 450.5 490.682C447.243 496.955 446.625 504.12 448.759 510.857C450.894 517.595 455.523 523.099 461.796 526.353C468.071 529.611 475.237 530.227 481.97 528.094C488.708 525.96 494.211 521.33 497.467 515.058C500.723 508.785 501.341 501.62 499.207 494.883C497.073 488.145 492.444 482.641 486.171 479.387C482.351 477.403 478.198 476.399 474.014 476.399Z" fill="white"/>
<path d="M557.891 504.208C557.391 504.208 556.884 504.172 556.374 504.097C550.641 503.263 546.652 497.921 547.486 492.189L548.763 483.39C542.286 481.078 536.426 477.59 531.313 473.003L524.188 478.32C521.938 480 519.172 480.702 516.394 480.298C513.617 479.895 511.163 478.434 509.484 476.185C506.018 471.541 506.976 464.944 511.62 461.479L518.745 456.162C515.802 449.953 514.124 443.344 513.752 436.478L504.954 435.199C499.221 434.367 495.233 429.024 496.068 423.291C496.47 420.513 497.93 418.06 500.181 416.38C502.431 414.702 505.198 414.001 507.974 414.403L516.774 415.681C519.085 409.203 522.573 403.343 527.161 398.23L521.843 391.107C520.165 388.856 519.462 386.088 519.865 383.312C520.269 380.534 521.729 378.08 523.98 376.401C526.229 374.722 528.996 374.021 531.773 374.422C534.551 374.826 537.005 376.287 538.684 378.536L544.003 385.66C550.21 382.718 556.821 381.04 563.685 380.668L564.964 371.87C565.797 366.136 571.155 362.144 576.872 362.982C579.65 363.385 582.104 364.846 583.783 367.095C585.462 369.344 586.163 372.113 585.76 374.889L584.483 383.689C590.96 386 596.82 389.488 601.933 394.076L609.058 388.757C613.698 385.293 620.295 386.249 623.764 390.895C627.229 395.538 626.27 402.135 621.625 405.6L614.502 410.919C617.444 417.124 619.122 423.734 619.495 430.601L628.294 431.88C634.027 432.713 638.015 438.056 637.182 443.788C636.349 449.523 630.994 453.515 625.274 452.675L616.475 451.397C614.163 457.876 610.675 463.736 606.089 468.847L611.406 475.972C614.871 480.614 613.913 487.21 609.27 490.678C607.02 492.356 604.252 493.057 601.474 492.654C598.696 492.25 596.242 490.789 594.563 488.54L589.246 481.416C583.039 484.359 576.429 486.037 569.563 486.409L568.283 495.207C567.525 500.433 563.022 504.207 557.891 504.208ZM531.498 469.526L532.315 470.29C537.608 475.243 543.785 478.918 550.67 481.217L551.731 481.572L550.133 492.573C549.513 496.845 552.486 500.828 556.758 501.45C561.031 502.07 565.015 499.099 565.635 494.826L567.233 483.822L568.352 483.786C575.606 483.543 582.573 481.775 589.057 478.533L590.058 478.033L596.708 486.942C597.959 488.619 599.788 489.707 601.859 490.008C603.932 490.313 605.992 489.786 607.67 488.533C611.13 485.95 611.845 481.034 609.261 477.574L602.612 468.664L603.376 467.846C608.328 462.555 612.005 456.38 614.304 449.492L614.658 448.431L625.66 450.028C629.938 450.645 633.914 447.676 634.537 443.404C635.157 439.132 632.185 435.148 627.913 434.526L616.909 432.929L616.873 431.81C616.629 424.554 614.862 417.589 611.62 411.106L611.119 410.105L620.028 403.454C623.489 400.872 624.204 395.956 621.62 392.494C620.369 390.818 618.54 389.73 616.469 389.429C614.399 389.125 612.336 389.652 610.658 390.903H610.659L601.749 397.553L600.932 396.789C595.639 391.835 589.463 388.159 582.577 385.862L581.516 385.507L583.114 374.505C583.415 372.435 582.89 370.372 581.639 368.695C580.387 367.019 578.558 365.93 576.488 365.629C572.202 365.005 568.233 367.981 567.61 372.253L566.013 383.255L564.894 383.292C557.641 383.535 550.675 385.303 544.19 388.545L543.189 389.045L536.538 380.137C535.287 378.459 533.458 377.371 531.388 377.07C529.319 376.771 527.255 377.293 525.578 378.546C523.901 379.797 522.813 381.626 522.512 383.696C522.211 385.767 522.734 387.83 523.986 389.507L530.636 398.415L529.872 399.232C524.917 404.526 521.242 410.702 518.945 417.587L518.59 418.648L507.588 417.051C505.52 416.754 503.455 417.275 501.778 418.526C500.102 419.777 499.012 421.607 498.711 423.676C498.091 427.95 501.064 431.933 505.336 432.554L516.338 434.152L516.374 435.27C516.618 442.523 518.385 449.489 521.629 455.976L522.129 456.977L513.218 463.626C511.543 464.877 510.454 466.706 510.153 468.778C509.852 470.848 510.376 472.911 511.628 474.589C512.879 476.264 514.709 477.353 516.778 477.654C518.847 477.954 520.912 477.431 522.589 476.178L531.498 469.526ZM566.671 472.219C554.865 472.219 543.2 466.85 535.611 456.685C522.85 439.584 526.38 415.29 543.48 402.527C551.763 396.346 561.963 393.756 572.185 395.245C582.415 396.73 591.452 402.112 597.635 410.395C603.817 418.679 606.403 428.873 604.917 439.101C603.431 449.331 598.051 458.368 589.768 464.551C582.835 469.724 574.72 472.219 566.671 472.219ZM566.548 397.512C558.84 397.512 551.368 399.979 545.08 404.673C529.163 416.552 525.878 439.166 537.757 455.085C549.637 471.001 572.249 474.282 588.169 462.406C595.878 456.651 600.886 448.239 602.269 438.718C603.652 429.197 601.244 419.707 595.49 411.996C589.736 404.285 581.324 399.277 571.802 397.894C570.046 397.639 568.29 397.512 566.548 397.512Z" fill="white"/>
</g>
<g opacity="0.81">
<path d="M384.892 509.595H357.406C356.666 509.595 356.068 508.997 356.068 508.257C356.068 507.517 356.666 506.919 357.406 506.919H384.892C385.631 506.919 386.23 507.517 386.23 508.257C386.23 508.997 385.631 509.595 384.892 509.595Z" fill="white"/>
<path d="M384.892 538.166H357.406C356.666 538.166 356.068 537.568 356.068 536.828C356.068 536.089 356.666 535.49 357.406 535.49H384.892C385.631 535.49 386.23 536.089 386.23 536.828C386.23 537.568 385.631 538.166 384.892 538.166Z" fill="white"/>
<path d="M405.639 567.019H235.887C233.887 567.019 232.26 565.392 232.26 563.392V475.286C232.26 473.285 233.887 471.657 235.887 471.657H405.639C407.639 471.657 409.268 473.285 409.268 475.286V563.392C409.268 565.392 407.639 567.019 405.639 567.019ZM235.887 474.334C235.363 474.334 234.936 474.761 234.936 475.287V563.393C234.936 563.918 235.363 564.344 235.887 564.344H405.639C406.164 564.344 406.592 563.918 406.592 563.393V475.287C406.592 474.761 406.165 474.334 405.639 474.334H235.887Z" fill="white"/>
<path opacity="0.66" d="M405.639 567.019H235.887C233.887 567.019 232.26 565.392 232.26 563.392V475.286C232.26 473.285 233.887 471.657 235.887 471.657H405.639C407.639 471.657 409.268 473.285 409.268 475.286V563.392C409.268 565.392 407.639 567.019 405.639 567.019ZM235.887 474.334C235.363 474.334 234.936 474.761 234.936 475.287V563.393C234.936 563.918 235.363 564.344 235.887 564.344H405.639C406.164 564.344 406.592 563.918 406.592 563.393V475.287C406.592 474.761 406.165 474.334 405.639 474.334H235.887Z" fill="white"/>
<path d="M384.892 495.73H253.916C253.178 495.73 252.578 495.132 252.578 494.392C252.578 493.653 253.178 493.054 253.916 493.054H384.892C385.632 493.054 386.23 493.653 386.23 494.392C386.23 495.132 385.632 495.73 384.892 495.73Z" fill="white"/>
<path d="M384.892 523.462H253.916C253.178 523.462 252.578 522.864 252.578 522.124C252.578 521.384 253.178 520.786 253.916 520.786H384.892C385.632 520.786 386.23 521.384 386.23 522.124C386.23 522.862 385.632 523.462 384.892 523.462Z" fill="white"/>
<path d="M324.53 509.595H253.916C253.178 509.595 252.578 508.997 252.578 508.257C252.578 507.517 253.178 506.919 253.916 506.919H324.53C325.269 506.919 325.868 507.517 325.868 508.257C325.868 508.997 325.269 509.595 324.53 509.595Z" fill="white"/>
<path d="M324.53 538.166H253.916C253.178 538.166 252.578 537.568 252.578 536.828C252.578 536.089 253.178 535.49 253.916 535.49H324.53C325.269 535.49 325.868 536.089 325.868 536.828C325.868 537.568 325.269 538.166 324.53 538.166Z" fill="white"/>
<path d="M301.538 551.402H253.916C253.178 551.402 252.578 550.804 252.578 550.064C252.578 549.324 253.178 548.726 253.916 548.726H301.538C302.277 548.726 302.876 549.324 302.876 550.064C302.876 550.804 302.277 551.402 301.538 551.402Z" fill="white"/>
</g>
<g opacity="0.81">
<path d="M121.915 423.929H91.0235C90.285 423.929 89.6855 423.331 89.6855 422.591C89.6855 421.851 90.285 421.253 91.0235 421.253H121.915C122.654 421.253 123.253 421.851 123.253 422.591C123.253 423.331 122.654 423.929 121.915 423.929Z" fill="white"/>
<path d="M121.915 391.817H91.0235C90.285 391.817 89.6855 391.219 89.6855 390.479C89.6855 389.739 90.285 389.141 91.0235 389.141H121.915C122.654 389.141 123.253 389.739 123.253 390.479C123.253 391.219 122.654 391.817 121.915 391.817Z" fill="white"/>
<path d="M258.778 463.561H67.4203C65.42 463.561 63.793 461.932 63.793 459.932V360.339C63.793 358.339 65.42 356.711 67.4203 356.711H258.778C260.779 356.711 262.407 358.339 262.407 360.339V459.932C262.406 461.932 260.779 463.561 258.778 463.561ZM67.4203 359.388C66.8958 359.388 66.469 359.815 66.469 360.341V459.934C66.469 460.459 66.8958 460.886 67.4203 460.886H258.778C259.303 460.886 259.731 460.459 259.731 459.934V360.341C259.731 359.815 259.304 359.388 258.778 359.388H67.4203Z" fill="white"/>
<path opacity="0.66" d="M258.778 463.561H67.4203C65.42 463.561 63.793 461.932 63.793 459.932V360.339C63.793 358.339 65.42 356.711 67.4203 356.711H258.778C260.779 356.711 262.407 358.339 262.407 360.339V459.932C262.406 461.932 260.779 463.561 258.778 463.561ZM67.4203 359.388C66.8958 359.388 66.469 359.815 66.469 360.341V459.934C66.469 460.459 66.8958 460.886 67.4203 460.886H258.778C259.303 460.886 259.731 460.459 259.731 459.934V360.341C259.731 359.815 259.304 359.388 258.778 359.388H67.4203Z" fill="white"/>
<path d="M238.232 439.512H91.0235C90.285 439.512 89.6855 438.913 89.6855 438.174C89.6855 437.434 90.285 436.836 91.0235 436.836H238.232C238.97 436.836 239.57 437.434 239.57 438.174C239.57 438.913 238.97 439.512 238.232 439.512Z" fill="white"/>
<path d="M238.232 408.344H91.0235C90.285 408.344 89.6855 407.746 89.6855 407.006C89.6855 406.266 90.285 405.668 91.0235 405.668H238.232C238.97 405.668 239.57 406.266 239.57 407.006C239.57 407.746 238.97 408.344 238.232 408.344Z" fill="white"/>
<path d="M238.232 423.929H158.867C158.129 423.929 157.529 423.331 157.529 422.591C157.529 421.851 158.129 421.253 158.867 421.253H238.232C238.971 421.253 239.57 421.851 239.57 422.591C239.57 423.331 238.971 423.929 238.232 423.929Z" fill="white"/>
<path d="M238.232 391.817H158.867C158.129 391.817 157.529 391.219 157.529 390.479C157.529 389.739 158.129 389.141 158.867 389.141H238.232C238.971 389.141 239.57 389.739 239.57 390.479C239.57 391.219 238.971 391.817 238.232 391.817Z" fill="white"/>
<path d="M238.231 376.941H184.707C183.969 376.941 183.369 376.343 183.369 375.603C183.369 374.863 183.969 374.265 184.707 374.265H238.231C238.97 374.265 239.569 374.863 239.569 375.603C239.569 376.342 238.97 376.941 238.231 376.941Z" fill="white"/>
</g>
<path opacity="0.14" d="M481.662 517.628L335.259 430.828C334.082 430.131 333.694 428.611 334.392 427.434L452.576 228.094C453.275 226.917 454.793 226.529 455.971 227.227L602.374 314.027C603.551 314.725 603.939 316.244 603.241 317.422L485.056 516.761C484.358 517.937 482.838 518.325 481.662 517.628Z" fill="#476FD4"/>
<path d="M477.859 509.64L331.456 422.84C330.28 422.143 329.891 420.623 330.589 419.446L448.775 220.106C449.472 218.929 450.992 218.541 452.169 219.239L598.572 306.039C599.748 306.737 600.137 308.257 599.439 309.434L481.252 508.773C480.555 509.949 479.035 510.339 477.859 509.64Z" fill="#FFE59C"/>
<path opacity="0.14" d="M519.912 507.198L352.532 476.345C351.187 476.098 350.298 474.805 350.545 473.461L392.554 245.559C392.802 244.214 394.094 243.325 395.439 243.572L562.819 274.425C564.164 274.673 565.053 275.965 564.806 277.31L522.797 505.211C522.549 506.556 521.258 507.446 519.912 507.198Z" fill="#476FD4"/>
<path d="M389.43 236.737L346.518 469.503L518.764 501.258L561.676 268.492L389.43 236.737Z" fill="white"/>
<path opacity="0.39" d="M516.336 500.788L348.956 469.935C347.611 469.688 346.722 468.395 346.969 467.05L388.978 239.149C389.226 237.803 390.518 236.914 391.863 237.162L559.243 268.015C560.587 268.262 561.477 269.555 561.23 270.9L519.221 498.801C518.973 500.147 517.682 501.036 516.336 500.788Z" fill="#FFE59C"/>
<path d="M535.611 295.884C535.533 295.884 535.45 295.877 535.367 295.861L493.468 288.138C492.742 288.005 492.262 287.306 492.395 286.58C492.531 285.853 493.218 285.374 493.954 285.507L535.852 293.229C536.579 293.363 537.059 294.062 536.925 294.788C536.806 295.433 536.244 295.884 535.611 295.884Z" fill="white"/>
<path d="M533.145 309.269C533.064 309.269 532.983 309.263 532.9 309.247L491.002 301.524C490.275 301.39 489.795 300.691 489.929 299.965C490.062 299.24 490.753 298.758 491.487 298.892L533.386 306.616C534.112 306.75 534.592 307.448 534.459 308.175C534.34 308.818 533.778 309.269 533.145 309.269Z" fill="white"/>
<path d="M530.462 323.817C530.382 323.817 530.301 323.811 530.218 323.795L488.318 316.072C487.592 315.938 487.111 315.239 487.245 314.514C487.379 313.788 488.067 313.309 488.804 313.441L530.702 321.164C531.428 321.298 531.909 321.996 531.775 322.723C531.657 323.366 531.095 323.817 530.462 323.817Z" fill="white"/>
<path opacity="0.14" d="M465.639 336.187L393.852 322.954C392.395 322.685 391.433 321.287 391.701 319.832L405.932 242.629C406.201 241.172 407.599 240.21 409.055 240.477L480.841 253.71C482.298 253.979 483.26 255.377 482.993 256.833L468.762 334.036C468.494 335.493 467.096 336.456 465.639 336.187Z" fill="#476FD4"/>
<path d="M463.001 331.705L394.564 319.09C393.107 318.821 392.143 317.423 392.412 315.967L405.886 242.875C406.155 241.418 407.553 240.455 409.009 240.724L477.446 253.338C478.903 253.607 479.865 255.005 479.598 256.461L466.124 329.553C465.856 331.011 464.458 331.974 463.001 331.705Z" fill="#599AF2"/>
<path opacity="0.07" d="M478.327 263.36L404.615 249.773L405.901 242.798C406.162 241.383 407.519 240.449 408.933 240.709L477.617 253.369C478.979 253.621 479.88 254.929 479.629 256.291L478.327 263.36Z" fill="#ECF1F7"/>
<path d="M425.237 286.125C424.718 286.125 424.192 286.078 423.664 285.98L422.643 285.791C417.224 284.792 413.627 279.57 414.625 274.15L417.2 260.182C417.4 259.092 418.456 258.369 419.537 258.573C420.628 258.773 421.347 259.82 421.148 260.91L418.574 274.877C417.976 278.121 420.127 281.246 423.371 281.844L424.391 282.033C426.914 282.501 429.341 280.825 429.805 278.303L436.322 242.95C436.801 240.349 435.075 237.842 432.474 237.361L430.728 237.04C427.956 236.53 425.304 238.365 424.793 241.126L424.634 241.997C424.432 243.089 423.373 243.809 422.296 243.608C421.206 243.408 420.484 242.361 420.685 241.271L420.846 240.398C421.76 235.459 426.519 232.18 431.455 233.093L433.201 233.414C437.979 234.295 441.15 238.899 440.271 243.677L433.753 279.029C432.984 283.2 429.333 286.125 425.237 286.125Z" fill="#476FD4"/>
<path d="M432.205 256.438C432.165 256.438 432.123 256.436 432.082 256.428L405.337 251.497C404.974 251.43 404.733 251.082 404.8 250.719C404.868 250.355 405.212 250.11 405.58 250.182L432.326 255.113C432.689 255.179 432.929 255.529 432.862 255.893C432.803 256.214 432.522 256.438 432.205 256.438Z" fill="white"/>
<path d="M513.987 394.703C513.906 394.703 513.825 394.697 513.742 394.681L385.717 371.081C384.99 370.947 384.51 370.25 384.643 369.522C384.777 368.797 385.465 368.313 386.202 368.449L514.227 392.049C514.954 392.183 515.434 392.88 515.301 393.607C515.181 394.252 514.619 394.703 513.987 394.703Z" fill="white"/>
<path d="M504.834 444.361C504.753 444.361 504.672 444.354 504.589 444.338L376.562 420.739C375.836 420.606 375.355 419.909 375.489 419.181C375.623 418.455 376.312 417.968 377.048 418.108L505.074 441.706C505.801 441.84 506.281 442.537 506.148 443.265C506.028 443.911 505.465 444.361 504.834 444.361Z" fill="white"/>
<path d="M441.906 407.089C441.825 407.089 441.744 407.082 441.661 407.066L381.14 395.91C380.414 395.776 379.933 395.079 380.067 394.351C380.202 393.626 380.89 393.138 381.626 393.278L442.146 404.435C442.873 404.568 443.353 405.265 443.22 405.993C443.102 406.638 442.539 407.089 441.906 407.089Z" fill="white"/>
<path d="M450.245 361.849C450.165 361.849 450.083 361.842 450 361.826L389.478 350.671C388.752 350.537 388.271 349.839 388.405 349.114C388.54 348.387 389.229 347.909 389.964 348.041L450.484 359.195C451.211 359.329 451.691 360.026 451.557 360.754C451.44 361.399 450.878 361.849 450.245 361.849Z" fill="white"/>
<path d="M509.445 419.339C509.365 419.339 509.284 419.332 509.201 419.316L451.537 408.687C450.81 408.553 450.33 407.856 450.464 407.128C450.598 406.403 451.285 405.918 452.023 406.055L509.686 416.684C510.413 416.818 510.893 417.515 510.759 418.243C510.642 418.888 510.08 419.339 509.445 419.339Z" fill="white"/>
<path d="M495.888 156.349H424.733C422.27 156.349 420.273 154.353 420.273 151.89V128.091C420.273 125.628 422.27 123.631 424.733 123.631H495.888C498.351 123.631 500.347 125.628 500.347 128.091V151.89C500.347 154.353 498.351 156.349 495.888 156.349Z" fill="#599AF2"/>
<path d="M549.49 192.014H449.958C447.494 192.014 445.498 190.017 445.498 187.554V152.161C445.498 149.698 447.494 147.702 449.958 147.702H549.49C551.953 147.702 553.95 149.698 553.95 152.161V187.554C553.95 190.016 551.953 192.014 549.49 192.014Z" fill="#FBEFCD"/>
<path d="M472.004 182.645H582.221C585.552 182.645 588.276 185.369 588.276 188.699V222.464C588.276 225.794 585.552 228.518 582.221 228.518H472.004C468.673 228.518 465.949 225.794 465.949 222.464V188.699C465.949 185.369 468.675 182.645 472.004 182.645Z" fill="white"/>
<path opacity="0.74" d="M472.004 182.645H582.221C585.552 182.645 588.276 185.369 588.276 188.699V222.464C588.276 225.794 585.552 228.518 582.221 228.518H472.004C468.673 228.518 465.949 225.794 465.949 222.464V188.699C465.949 185.369 468.675 182.645 472.004 182.645Z" fill="#13366F"/>
<path d="M549.445 210.954C546.515 210.954 544.131 208.57 544.131 205.64C544.131 202.71 546.514 200.325 549.445 200.325C552.377 200.325 554.76 202.71 554.76 205.64C554.76 208.57 552.377 210.954 549.445 210.954ZM549.445 201.663C547.252 201.663 545.469 203.447 545.469 205.64C545.469 207.833 547.252 209.616 549.445 209.616C551.638 209.616 553.422 207.833 553.422 205.64C553.422 203.447 551.638 201.663 549.445 201.663Z" fill="white"/>
<path d="M527.522 210.954C524.591 210.954 522.207 208.57 522.207 205.64C522.207 202.71 524.59 200.325 527.522 200.325C530.453 200.325 532.836 202.71 532.836 205.64C532.835 208.57 530.452 210.954 527.522 210.954ZM527.522 201.663C525.329 201.663 523.545 203.447 523.545 205.64C523.545 207.833 525.329 209.616 527.522 209.616C529.715 209.616 531.498 207.833 531.498 205.64C531.497 203.447 529.713 201.663 527.522 201.663Z" fill="white"/>
<path d="M507.082 210.954C504.152 210.954 501.768 208.57 501.768 205.64C501.768 202.71 504.151 200.325 507.082 200.325C510.012 200.325 512.397 202.71 512.397 205.64C512.397 208.57 510.014 210.954 507.082 210.954ZM507.082 201.663C504.889 201.663 503.106 203.447 503.106 205.64C503.106 207.833 504.889 209.616 507.082 209.616C509.275 209.616 511.059 207.833 511.059 205.64C511.059 203.447 509.275 201.663 507.082 201.663Z" fill="white"/>
<path d="M203.881 126.837H374.666C378.106 126.837 380.894 129.625 380.894 133.065V384.615C380.894 396.482 371.274 406.102 359.407 406.102H240.824C215.537 406.102 195.039 385.602 195.039 360.315V135.679C195.039 130.795 198.997 126.837 203.881 126.837Z" fill="white"/>
<path opacity="0.39" d="M197.211 126.837H377.554C379.397 126.837 380.892 128.332 380.892 130.175V385.614C380.892 396.928 371.72 406.1 360.406 406.1H236.753C213.714 406.1 195.037 387.423 195.037 364.384V129.01C195.038 127.81 196.011 126.837 197.211 126.837Z" fill="#95B5E9"/>
<path opacity="0.39" d="M213.023 126.837H378.252C379.711 126.837 380.892 128.018 380.892 129.477V386.313C380.892 397.241 372.033 406.1 361.105 406.1H252.563C229.911 406.1 211.547 387.736 211.547 365.083V128.312C211.547 127.497 212.208 126.837 213.023 126.837Z" fill="#0071F2"/>
<path d="M237.482 406.054V406.1H386.76C403.942 406.1 417.87 392.172 417.87 374.991V363.173H266.904V374.991C266.904 391.606 253.878 405.177 237.482 406.054Z" fill="#6161B5"/>
<g opacity="0.28">
<path d="M257.273 406.054V406.1H390.174C405.47 406.1 417.871 392.172 417.871 374.991V363.173H283.467V374.991C283.467 391.606 271.871 405.177 257.273 406.054Z" fill="#476FD4"/>
</g>
<path d="M352.683 330.985H245.35C244.611 330.985 244.012 330.386 244.012 329.647C244.012 328.909 244.611 328.309 245.35 328.309H352.683C353.423 328.309 354.021 328.909 354.021 329.647C354.021 330.386 353.423 330.985 352.683 330.985Z" fill="white"/>
<path d="M354.934 285.793H243.344C242.605 285.793 242.006 285.193 242.006 284.455C242.006 283.716 242.605 283.117 243.344 283.117H354.934C355.674 283.117 356.272 283.716 356.272 284.455C356.272 285.195 355.674 285.793 354.934 285.793Z" fill="white"/>
<path d="M299.016 308.37H241.996C241.258 308.37 240.658 307.771 240.658 307.032C240.658 306.294 241.258 305.694 241.996 305.694H299.016C299.755 305.694 300.354 306.294 300.354 307.032C300.354 307.771 299.755 308.37 299.016 308.37Z" fill="white"/>
<path d="M294.695 308.37H246.315C245.576 308.37 244.977 307.771 244.977 307.032C244.977 306.294 245.576 305.694 246.315 305.694H294.695C295.434 305.694 296.033 306.294 296.033 307.032C296.033 307.771 295.435 308.37 294.695 308.37Z" fill="white"/>
<path d="M317.577 237.473H244.119C243.381 237.473 242.781 236.874 242.781 236.135C242.781 235.397 243.381 234.797 244.119 234.797H317.577C318.315 234.797 318.915 235.397 318.915 236.135C318.915 236.874 318.315 237.473 317.577 237.473Z" fill="white"/>
<path d="M351.633 237.473H329.256C328.517 237.473 327.918 236.874 327.918 236.135C327.918 235.397 328.517 234.797 329.256 234.797H351.633C352.373 234.797 352.971 235.397 352.971 236.135C352.971 236.874 352.371 237.473 351.633 237.473Z" fill="white"/>
<path d="M354.935 260.05H275.391C274.652 260.05 274.053 259.45 274.053 258.712C274.053 257.973 274.652 257.374 275.391 257.374H354.935C355.675 257.374 356.273 257.973 356.273 258.712C356.273 259.45 355.675 260.05 354.935 260.05Z" fill="white"/>
<path d="M267.535 260.05H243.344C242.605 260.05 242.006 259.45 242.006 258.712C242.006 257.973 242.605 257.374 243.344 257.374H267.535C268.273 257.374 268.873 257.973 268.873 258.712C268.873 259.45 268.273 260.05 267.535 260.05Z" fill="white"/>
<path d="M352.683 218.356H245.35C244.611 218.356 244.012 217.757 244.012 217.018C244.012 216.28 244.611 215.68 245.35 215.68H352.683C353.423 215.68 354.021 216.28 354.021 217.018C354.021 217.757 353.423 218.356 352.683 218.356Z" fill="white"/>
<path d="M352.683 173.164H245.35C244.611 173.164 244.012 172.564 244.012 171.826C244.012 171.087 244.611 170.488 245.35 170.488H352.683C353.423 170.488 354.021 171.087 354.021 171.826C354.021 172.564 353.423 173.164 352.683 173.164Z" fill="white"/>
<path d="M284.742 195.741H244.119C243.381 195.741 242.781 195.142 242.781 194.403C242.781 193.665 243.381 193.065 244.119 193.065H284.742C285.481 193.065 286.08 193.665 286.08 194.403C286.08 195.142 285.482 195.741 284.742 195.741Z" fill="white"/>
<path d="M351.865 195.741H303.484C302.746 195.741 302.146 195.142 302.146 194.403C302.146 193.665 302.746 193.065 303.484 193.065H351.865C352.605 193.065 353.203 193.665 353.203 194.403C353.203 195.142 352.605 195.741 351.865 195.741Z" fill="white"/>
<path opacity="0.21" d="M496.192 352.094C529.264 319.023 529.264 265.404 496.192 232.333C463.121 199.261 409.502 199.261 376.431 232.333C343.36 265.404 343.36 319.023 376.431 352.094C409.502 385.165 463.121 385.165 496.192 352.094Z" fill="white"/>
<path opacity="0.76" d="M369.956 298.298C367 298.298 364.604 295.901 364.604 292.946C364.604 250.225 399.359 215.47 442.079 215.47C445.035 215.47 447.431 217.867 447.431 220.822C447.431 223.778 445.035 226.174 442.079 226.174C405.26 226.174 375.308 256.128 375.308 292.946C375.308 295.901 372.911 298.298 369.956 298.298Z" fill="white"/>
<path opacity="0.58" d="M436.316 379.573C388.145 379.573 348.955 340.383 348.955 292.213C348.955 244.042 388.145 204.852 436.316 204.852C484.486 204.852 523.676 244.042 523.676 292.213C523.676 340.383 484.486 379.573 436.316 379.573ZM436.316 210.204C391.095 210.204 354.307 246.994 354.307 292.213C354.307 337.432 391.095 374.221 436.316 374.221C481.536 374.221 518.324 337.432 518.324 292.213C518.324 246.994 481.536 210.204 436.316 210.204Z" fill="#476FD4"/>
<path d="M514.153 352.888C514.277 352.764 514.418 352.663 514.554 352.56C527.451 335.866 535.138 314.941 535.138 292.213C535.138 237.634 490.893 193.391 436.316 193.391C381.739 193.391 337.494 237.634 337.494 292.213C337.494 346.791 381.738 391.035 436.316 391.035C458.95 391.035 479.784 383.397 496.445 370.597L507.876 359.165L514.153 352.888ZM436.316 376.897C389.546 376.897 351.631 338.982 351.631 292.213C351.631 245.443 389.546 207.528 436.316 207.528C483.086 207.528 521.001 245.443 521.001 292.213C521.001 338.982 483.086 376.897 436.316 376.897Z" fill="#476FD4"/>
<path d="M436.316 392.373C381.088 392.373 336.156 347.441 336.156 292.213C336.156 236.984 381.088 192.053 436.316 192.053C491.545 192.053 536.476 236.985 536.476 292.213C536.476 314.56 529.262 335.711 515.613 353.378L515.361 353.627C515.229 353.726 515.161 353.771 515.102 353.832L497.259 371.656C479.622 385.21 458.547 392.373 436.316 392.373ZM436.316 194.727C382.563 194.727 338.832 238.458 338.832 292.211C338.832 345.964 382.565 389.695 436.316 389.695C457.924 389.695 478.408 382.743 495.56 369.588L513.207 351.941C513.333 351.815 513.467 351.705 513.604 351.6C526.817 334.433 533.8 313.902 533.8 292.211C533.8 238.458 490.068 194.727 436.316 194.727ZM436.316 378.235C388.883 378.235 350.294 339.646 350.294 292.213C350.294 244.779 388.883 206.19 436.316 206.19C483.75 206.19 522.339 244.779 522.339 292.213C522.339 339.646 483.75 378.235 436.316 378.235ZM436.316 208.866C390.359 208.866 352.97 246.255 352.97 292.213C352.97 338.17 390.359 375.559 436.316 375.559C482.274 375.559 519.663 338.17 519.663 292.213C519.663 246.254 482.273 208.866 436.316 208.866Z" fill="#476FD4"/>
<path d="M511.71 368.339L507.877 364.506C506.401 363.03 506.401 360.639 507.877 359.163L496.445 370.595L496.259 370.781C494.783 372.257 494.783 374.648 496.259 376.124L500.911 380.776C502.445 378.206 506.932 373.171 511.71 368.339Z" fill="#4C65BA"/>
<path d="M507.876 359.165C506.401 360.641 506.401 363.033 507.876 364.507L511.71 368.341C516.334 363.664 521.212 359.198 523.95 357.344L519.496 352.89C518.146 351.539 516.036 351.44 514.554 352.562C514.418 352.665 514.277 352.765 514.153 352.89L507.876 359.165Z" fill="#4C65BA"/>
<path opacity="0.43" d="M507.876 359.165C506.401 360.641 506.401 363.033 507.876 364.507L511.71 368.341C516.334 363.664 521.212 359.198 523.95 357.344L519.496 352.89C518.146 351.539 516.036 351.44 514.554 352.562C514.418 352.665 514.277 352.765 514.153 352.89L507.876 359.165Z" fill="#476FD4"/>
<path d="M595.649 426.866L526.058 356.517C525.808 356.264 525.045 356.6 523.951 357.342C521.213 359.198 516.335 363.664 511.711 368.339C506.933 373.171 502.446 378.206 500.91 380.777C500.411 381.614 500.218 382.194 500.437 382.417L570.027 452.766C577.103 459.918 588.573 459.918 595.647 452.766C602.724 445.613 602.724 434.018 595.649 426.866Z" fill="#476FD4"/>
<path opacity="0.14" d="M595.649 426.866L526.058 356.517C525.121 355.57 517.191 362.674 510.382 369.695C504.588 375.668 588.575 459.918 595.649 452.766C602.724 445.613 602.724 434.018 595.649 426.866Z" fill="#476FD4"/>
<path d="M338.671 339.521H109.918C96.5545 339.521 85.7207 328.688 85.7207 315.324C85.7207 301.96 96.5545 291.126 109.918 291.126H338.671C352.035 291.126 362.869 301.96 362.869 315.324C362.87 328.688 352.036 339.521 338.671 339.521Z" fill="white"/>
<path d="M338.67 339.522H301.464L301.285 291.125H338.672C352.035 291.125 362.869 301.959 362.869 315.322C362.869 328.688 352.035 339.522 338.67 339.522Z" fill="#599AF2"/>
<path d="M329.255 323.804C323.418 323.804 318.67 319.056 318.67 313.219C318.67 307.383 323.418 302.634 329.255 302.634C335.091 302.634 339.84 307.383 339.84 313.219C339.84 316.046 338.739 318.705 336.74 320.704C334.741 322.703 332.082 323.804 329.255 323.804ZM329.255 305.312C324.894 305.312 321.346 308.859 321.346 313.221C321.346 317.581 324.893 321.129 329.255 321.129C331.368 321.129 333.353 320.307 334.848 318.813C336.341 317.32 337.164 315.333 337.164 313.221C337.164 308.859 333.615 305.312 329.255 305.312Z" fill="white"/>
<path d="M344.146 329.539C343.803 329.539 343.461 329.408 343.2 329.147L334.803 320.749C334.279 320.226 334.279 319.381 334.803 318.858C335.326 318.334 336.173 318.336 336.694 318.858L345.09 327.255C345.614 327.778 345.614 328.624 345.09 329.147C344.831 329.408 344.488 329.539 344.146 329.539Z" fill="white"/>
<path d="M341.934 389.521H228.072C220.103 389.521 213.643 383.061 213.643 375.092V365.63C213.643 357.633 207.159 351.149 199.162 351.149H146.569C138.572 351.149 132.088 357.633 132.088 365.63V403.01V445.982V515.932C132.088 523.38 138.126 529.42 145.576 529.42H341.934C349.383 529.42 355.423 523.382 355.423 515.932V403.01C355.423 395.56 349.384 389.521 341.934 389.521Z" fill="#FFC629" fill-opacity="0.9"/>
<path d="M329.388 389.521H215.526C207.557 389.521 201.097 383.061 201.097 375.092V365.63C201.097 357.633 194.613 351.149 186.616 351.149H134.024C126.027 351.149 119.543 357.633 119.543 365.63V403.01V445.982V515.932C119.543 523.38 125.581 529.42 133.031 529.42H329.388C336.837 529.42 342.877 523.382 342.877 515.932V403.01C342.877 395.56 336.837 389.521 329.388 389.521Z" fill="#FFC629" fill-opacity="0.9"/>
<path opacity="0.12" d="M329.388 389.521H215.526C207.557 389.521 201.097 383.061 201.097 375.092V365.63C201.097 357.633 194.613 351.149 186.616 351.149H134.024C126.027 351.149 119.543 357.633 119.543 365.63V403.01V445.982V515.932C119.543 523.38 125.581 529.42 133.031 529.42H329.388C336.837 529.42 342.877 523.382 342.877 515.932V403.01C342.877 395.56 336.837 389.521 329.388 389.521Z" fill="white"/>
<path opacity="0.12" d="M300.507 389.521H202.316C195.444 389.521 189.872 383.061 189.872 375.092V365.63C189.872 357.633 184.281 351.149 177.385 351.149H132.031C125.133 351.149 119.543 357.633 119.543 365.63V403.01V445.982V515.932C119.543 523.38 124.75 529.42 131.174 529.42H300.509C306.933 529.42 312.14 523.382 312.14 515.932V403.01C312.14 395.56 306.931 389.521 300.507 389.521Z" fill="white"/>
<path d="M130.063 404.55C129.324 404.55 128.725 403.952 128.725 403.212V370.379C128.725 365.293 132.862 361.156 137.946 361.156H176.701C177.44 361.156 178.039 361.754 178.039 362.494C178.039 363.234 177.44 363.832 176.701 363.832H137.947C134.339 363.832 131.402 366.767 131.402 370.379V403.212C131.401 403.95 130.803 404.55 130.063 404.55Z" fill="white"/>
</svg>
