<svg width="80" height="49" viewBox="0 0 80 49" fill="none" xmlns="http://www.w3.org/2000/svg">
<path d="M5.71484 43.2228C8.10329 46.5873 17.0235 49.6461 17.0235 24.0618M33.8182 12.8978C33.8182 -2.09407 17.0233 -2.08062 17.0234 15.8234L17.0235 24.0618M17.0235 24.0618H28.0707" stroke="#476FD4" stroke-width="4" stroke-linecap="round"/>
<ellipse cx="2.04079" cy="39.0563" rx="2.04079" ry="2.17791" fill="#476FD4"/>
<path d="M33.9555 19.7725C33.9638 27.1859 35.6875 29.4208 41.4827 30.3837M41.4827 30.3837C48.2288 29.1917 49.3961 26.416 49.3747 19.7725M41.4827 30.3837C41.4827 30.3837 43.4445 47.5463 26.0638 45.5002" stroke="#FFCB37" stroke-width="4" stroke-linecap="round"/>
<path d="M50.7129 31.5996H74.4063" stroke="#476FD4" stroke-width="5" stroke-linecap="round"/>
<path d="M72.6855 46.0778C64.3738 9.98487 60.519 9.85137 52.4315 46.0778" stroke="#476FD4" stroke-width="4" stroke-linecap="round"/>
<ellipse cx="49.3884" cy="14.6638" rx="2.04079" ry="2.17791" fill="#FFCB37"/>
<ellipse cx="77.9588" cy="46.0261" rx="2.04079" ry="2.17791" fill="#476FD4"/>
</svg>
