<svg width="100" height="61" viewBox="0 0 100 61" fill="none" xmlns="http://www.w3.org/2000/svg">
<path d="M7.14453 54.5287C10.1301 58.7344 21.2804 62.5579 21.2804 30.5773M42.2739 16.6224C42.2739 -2.11761 21.2802 -2.1008 21.2803 20.2793L21.2804 30.5773M21.2804 30.5773H35.0895" stroke="#F9FBFF" stroke-width="5" stroke-linecap="round"/>
<ellipse cx="2.551" cy="49.3208" rx="2.551" ry="2.72241" fill="#F9FBFF"/>
<path d="M42.4443 25.2158C42.4547 34.4826 44.6093 37.2763 51.8533 38.4799M51.8533 38.4799C60.286 36.9899 61.7451 33.5203 61.7184 25.2158M51.8533 38.4799C51.8533 38.4799 54.3057 59.9332 32.5796 57.3756" stroke="#FFCB37" stroke-width="5" stroke-linecap="round"/>
<path d="M63.3906 39.9998H93.0075" stroke="#F9FBFF" stroke-width="5" stroke-linecap="round"/>
<path d="M90.8594 58.0971C80.4696 12.9808 75.6511 12.8139 65.5417 58.0971" stroke="#F9FBFF" stroke-width="5" stroke-linecap="round"/>
<ellipse cx="61.7346" cy="18.8298" rx="2.551" ry="2.72241" fill="#FFCB37"/>
<ellipse cx="97.4494" cy="58.0325" rx="2.551" ry="2.72241" fill="#F9FBFF"/>
</svg>
