<svg width="600" height="600" viewBox="0 0 600 600" fill="none" xmlns="http://www.w3.org/2000/svg">
<rect x="1" y="1" width="598" height="598" rx="149" fill="#F9FBFF" stroke="#476FD4" stroke-width="2"/>
<path d="M85.7148 406.497C100.643 426.201 156.395 444.115 156.395 294.279M260.5 228.76C260.5 140.959 156.394 141.174 156.394 246.03L156.395 294.279M156.395 294.279H225.441" stroke="#476FD4" stroke-width="23" stroke-linecap="round"/>
<ellipse cx="62.7551" cy="382.097" rx="12.7551" ry="12.7551" fill="#476FD4"/>
<path d="M262.221 269.159C262.273 312.576 273.046 325.665 309.266 331.304M309.266 331.304C351.43 324.323 358.725 308.067 358.592 269.159M309.266 331.304C309.266 331.304 321.528 431.818 212.897 419.835" stroke="#FFCB37" stroke-width="23" stroke-linecap="round"/>
<path d="M366.957 338.425H515.043" stroke="#476FD4" stroke-width="23" stroke-linecap="round"/>
<path d="M504.287 423.216C452.338 211.836 428.245 211.054 377.698 423.216" stroke="#476FD4" stroke-width="23" stroke-linecap="round"/>
<ellipse cx="358.671" cy="239.24" rx="12.7551" ry="12.7551" fill="#FFCB37"/>
<ellipse cx="537.249" cy="422.914" rx="12.7551" ry="12.7551" fill="#476FD4"/>
</svg>
